<svg xmlns="http://www.w3.org/2000/svg" viewBox="0 0 300 300" width="300" height="300"><style>.a{fill:#002a80}</style><path class="a" d="m211.1 124l9.1-6.4 18.7 27.4 13.3-9.1-7.5-10.7-8.3 5.8-3.3-4.7 8.3-5.8-4.5-6.6 4.6-3.3 4.6 6.6 8.9-6.2 3.3 4.7-8.9 6.2 7.5 10.8 13.9-9.4-18.9-27.8 12.2-8.5-5.1-7.3-47.9 33.4v10.9z"></path><path class="a" d="m43.1 132.7l7.6-10.8-8.9-6.2 3.3-4.7 8.8 6.2 4.6-6.6 4.7 3.3-4.6 6.6 8.3 5.8-3.3 4.7-8.3-5.8-7.5 10.7 13.4 9.1 18.6-27.4 9.4 6.5v-10.9l-48.1-33.5-5.1 7.3 12.2 8.5-18.9 27.8 13.8 9.4z"></path><path class="a" d="m92.3 206.8l10.8-7.5c-1.9-2.3-3.6-4.7-5.2-7.3l-10.7 7.5c-8.4-9-21.9-12.2-33.8-7.2-0.9-1.3-2.3-2.2-3.9-2.5-1.6-0.3-3.2 0-4.6 1-2.7 1.9-3.4 5.6-1.6 8.4-8.1 8.4-10.8 21.2-6.1 32.5-1.2 0.9-2 2.2-2.3 3.7-0.3 1.6 0 3.2 1 4.6 0.9 1.3 2.3 2.3 3.9 2.6 0.4 0 0.7 0.1 1.1 0.1 1.1 0 2.1-0.3 3.1-0.9 2.9 2.8 6.3 5 10.2 6.5 3.6 1.4 7.3 2.1 10.9 2.1 3.6 0 0.3 0 0.5 0-0.4-1.8-0.2-3.4 0.6-5-0.6-1.3-0.8-2.6-0.7-3.9 0-1 0.3-2 0.7-3-0.2-1.9-1.7-3.6-3.7-4-2.5-0.4-4.9 1.2-5.4 3.7-0.1 0.6 0 1.2 0 1.7-5.1-2.1-9.2-6-11.4-11.1-1.2-2.6-1.8-5.4-1.8-8.2q0.7 0.4 1.5 0.6c0.3 0 0.6 0 0.8 0 0.9 0 1.8-0.3 2.6-0.8 1-0.7 1.7-1.8 1.9-3 0.5-2.5-1.2-4.9-3.7-5.4-0.5 0-1.1 0-1.6 0 2.1-5.2 6-9.2 11.1-11.5 2.6-1.1 5.3-1.7 8-1.8-0.2 0.4-0.4 0.8-0.5 1.3-0.2 1.2 0 2.4 0.7 3.5 0.7 1 1.8 1.7 3 1.9q0.4 0 0.9 0c0.9 0 1.8-0.3 2.6-0.8 1-0.7 1.7-1.8 1.9-3 0-0.5 0-0.9 0-1.4 5.2 2.1 9.3 6 11.5 11.1q1.6 3.9 1.8 8.1c-0.4-0.2-0.9-0.4-1.4-0.5-2.5-0.5-4.9 1.2-5.4 3.7-0.2 1.2 0 2.5 0.7 3.5 0.7 1 1.7 1.7 3 1.9 0.3 0 0.6 0 0.8 0 0.2 0 0.5 0 0.7-0.1-1.8 4.5-5.1 8.2-9.3 10.6 0.2 1.7 0 3.3-0.5 4.9 0.6 1.6 0.8 3.3 0.5 4.9 0.4-0.2 0.9-0.3 1.4-0.5 0.9 1.3 2.3 2.1 3.8 2.4 0.4 0 0.7 0.1 1.1 0.1 1.2 0 2.4-0.4 3.5-1.1 1.3-0.9 2.3-2.3 2.6-3.9 0.3-1.6 0-3.1-0.9-4.4 2.7-2.8 4.9-6.2 6.3-10 2.9-7.5 2.7-15.8-0.5-23.2-0.2-0.4-0.4-0.8-0.6-1.1"></path><path class="a" d="m223.5 73.2l-0.5 2c-0.5 2 0.6 4 2.5 4.6 3.7 1.2 9.9 3.4 17.1 6l-1.7-14.3 11.6-8.1-12.1-3.8-7.3 17.4z"></path><path class="a" d="m76.6 73.2l0.5 2c0.5 2-0.6 4-2.5 4.6-3.7 1.2-9.9 3.4-17.1 6l1.7-14.3-11.6-8.1 12.2-3.9 7.2 17.4 9.6-3.8z"></path><path class="a" d="m184 47.6l3.4 0.5-0.9-5.9-2.5 5.4z"></path><path class="a" d="m236.7 44.8c-27.6-10.5-56.7-15.8-86.6-15.8-29.9 0-59 5.3-86.6 15.8-3.4 1.3-5 5-3.7 8.4l8.5 20.7c25.9-10.7 53.4-16.1 81.7-16.1 28.3 0 55.8 5.4 81.7 16.1l8.5-20.7c1.4-3.3-0.3-7.1-3.7-8.4m-143.3 11c-0.3 0.8-0.9 1.5-1.6 2.1-0.7 0.6-1.6 1-2.7 1.3-1.2 0.3-2.2 0.4-3.1 0.2-0.9-0.2-1.7-0.5-2.4-1-0.7-0.5-1.3-1.2-1.7-2-0.5-0.8-0.8-1.7-1.1-2.6l-2-7.3 3.3-0.9 2 7.3c0.1 0.5 0.4 1 0.6 1.5q0.3 0.7 0.9 1.2c0.4 0.3 0.8 0.5 1.2 0.7q0.6 0.2 1.5 0c0.6-0.2 1-0.4 1.4-0.8 0.4-0.4 0.5-0.7 0.7-1.2 0.1-0.5 0.2-1 0.1-1.5 0-0.5-0.1-1.1-0.3-1.6l-2-7.3 3.3-0.9 2 7.3c0.3 1 0.4 2 0.4 2.9 0 0.9-0.2 1.8-0.5 2.6zm25.9-2.9l-8-7.4 1.3 8.4-3.4 0.5-2.2-14.8 2.7-0.4 8.1 7.7-1.3-8.7 3.4-0.5 2.2 14.8zm17-1.6l-0.8-14.9 3.4-0.2 0.8 14.9zm20.9-6.1c0.2 0.6 0.4 1 0.7 1.5 0.3 0.4 0.7 0.8 1.2 1 0.5 0.3 1 0.4 1.6 0.4 0.4 0 0.9 0 1.3-0.2 0.4-0.1 0.9-0.3 1.2-0.6 0.4-0.3 0.7-0.7 0.9-1.1l2.7 1.8q-0.5 1-1.5 1.8c-0.7 0.5-1.5 0.9-2.3 1.1-0.9 0.2-1.7 0.3-2.5 0.3-1.1 0-2.1-0.3-2.9-0.8-0.9-0.5-1.6-1.1-2.3-1.9-0.6-0.8-1.1-1.6-1.4-2.5-0.3-0.9-0.5-1.9-0.4-2.8q0-1.4 0.6-2.7c0.4-0.9 0.9-1.6 1.6-2.3 0.7-0.7 1.5-1.2 2.4-1.6 0.9-0.4 2-0.6 3.2-0.5 1.4 0 2.6 0.4 3.6 1.1 1 0.6 1.7 1.5 2.2 2.4l-2.7 1.7c-0.2-0.5-0.5-1-0.8-1.3-0.4-0.3-0.8-0.5-1.2-0.7-0.4-0.1-0.9-0.2-1.3-0.2-0.7 0-1.2 0-1.7 0.3-0.5 0.2-0.9 0.6-1.3 1-0.3 0.4-0.6 0.9-0.8 1.4-0.2 0.5-0.3 1.1-0.3 1.6 0 0.6 0 1.2 0.2 1.7m31.2 8.9l-0.5-3.5-4.9-0.7-1.5 3.2-3.5-0.5 7.3-14 3.7 0.6 2.8 15.5-3.5-0.5zm28.4 6.6l-3.3-0.9 1.6-5.9-5.7-1.6-1.6 5.9-3.3-0.9 3.9-14.4 3.3 0.9-1.5 5.6 5.7 1.6 1.5-5.6 3.3 0.9z"></path><path class="a" d="m199.6 91.5l-13.5-2.9c-11.8-2.6-23.8-3.9-35.8-3.9-12 0-23.5 1.2-35 3.7l-14.7 3.1c-4.4 1-7.6 4.9-7.6 9.4v59.6c0 30.3 23.7 55.1 53.6 56.9v-14.5q-0.4 0-1.2 0c-3.1 0-8-0.4-13.3-2.5l-2.6-1.1c-1.5-0.8-3-1.6-4.4-2.6q-4-2.8-7.2-6.3l-2-2.5c-4.3-5.7-6.8-12.6-7.3-20l-0.4-6.4 5.4 4.5c0.5 0.4 1.1 0.9 1.7 1.4 0 0 1.3-1.7 1.6-2.2-4.3-0.3-8.2-2.9-10-6.8l-0.4-0.6v-0.6-1.9c0 0 1.8-0.7 1.9-0.8-2.7-1.7-4.6-4.6-5.2-7.9-0.1-0.8-0.3-1.6-0.4-2.4l-0.4-3.3h1.7c-1.3-1.7-2.1-3.9-2.2-6.2-0.1-2.1-0.1-3.6 0-4.7l0.3-3.2 44.3 12.6v-16.2h-30.7c-1.7 0-3.2-1.4-3.2-3.1v-1.9c0-1.7 1.4-3.1 3.2-3.1h30.7v-17.1c0-1.7 1.4-3.1 3.1-3.1h1.9c1.7 0 3.2 1.4 3.2 3.1v17.1h29.4c1.7 0 3.2 1.4 3.2 3.1v1.9c0 1.7-1.4 3.1-3.2 3.1h-29.4v28.4c0.9 0 1.4-0.2 1.7-0.6 0.3-0.3 0.5-0.8 0.4-1.3-0.3-5 0.4-7.5 2.9-9.9 2-1.9 4.4-2.9 6.9-2.9 4 0 7.8 2.5 8.9 5.8 0 0 0.2 0.2 0.4 0.3 0.8-1.1 1.8-2 2.9-2.8-1-3.3 0-6.9 2.6-9.3l2.1-1.8 1.8 2.1c1.6 1.8 2.3 4 2.2 6.3 1-0.4 2-0.5 3-0.5 2.9 0 5.6 1.4 7.3 3.7l1.6 2.3-2.3 1.6c-1.5 1.1-3.3 1.7-5.2 1.7-1.9 0-2.4-0.2-3.5-0.7 0.5 0.9 0.9 1.9 1.1 2.9l0.5 2.8-2.8 0.4c-0.5 0-1 0.1-1.5 0.1-2.1 0-4.1-0.8-5.7-2.1q-0.5 1.8 0 3.6c0.5 1.8 1.7 3.3 3.3 4.3l2.4 1.3-3.3 5.9-2.4-1.4c-1.4-0.8-2.6-1.8-3.6-2.9-0.4 4.7-3.9 9.3-9.9 13l-0.5 0.3c-3.6 2.2-8.1 5-11.4 9.7v33.8c29.2-2.4 52.3-26.9 52.3-56.8v-59.6c0-4.5-3.1-8.4-7.5-9.4"></path><path class="a" d="m195.7 142.2c-1.1 0.8-2.4 1.2-3.6 1.2-1.2 0-3.2-0.6-4.4-1.8q-0.3 0-0.6 0c-2.3 0-4.5 0.8-6.2 2.2 2.9 0 5.6 2.1 6.1 5.1-0.4 0-0.7 0.1-1.1 0.1-2.7 0-5.1-1.8-5.9-4.3-0.5 0.6-1.1 1.2-1.5 1.9-2.7 4.7-1 10.7 3.7 13.4l-0.6 1.1c-4.8-2.7-6.8-8.5-4.9-13.5-1.3 0.1-4.4 0.2-5.5 0.4-0.5 0.1-1 0.4-1.4 0.8-0.4 0.4-0.9 1.1-0.7 2.1 0.4 2 4.5 3.5 4.8 8.2 0.2 4.3-3 8.6-8.6 12.1-6.5 4-18.3 10.7-17.7 28.9 0 0-0.8 0-2.2 0-2.6 0-7.2-0.3-12.3-2.3 0.8-1.7 3.5-8.6 4.3-10-0.5 0.6-5.4 7.6-6.4 9.1-1.4-0.7-2.9-1.5-4.3-2.5-2.6-1.8-4.8-3.8-6.7-5.9 1.5-1 7.4-4.8 8.8-5.6-0.8 0.3-8.7 3.2-10.3 3.8-4.5-5.8-6.7-12.5-7.1-19 3.1 2.6 7.3 6.5 16.2 6.8 0.2 0 0.5 0 0.8 0 8.5 0 15.7-5.1 19-10 1.5-2.4 0.3-3.7 0-4-0.2-0.1-0.7-0.5-1.4-0.5-0.7 0-2 0.5-3.1 2.6-2.2 4.2-4.8 5.7-9.1 6.9-1.6 0.4-3.5 0.8-5.7 0.8-3.1 0-6.5-0.6-9.6-2.4 1.1-1.5 5.4-7.3 6.5-8.5 0 0-0.5 0.4-1.3 1-1.7 1.4-3.8 2.1-5.8 2.1-3.4 0-6.7-1.9-8.3-5.2 0 0 0 0 0-0.1 1.7-0.7 8.3-3.5 9.8-4-0.3 0-1.3 0.2-2.5 0.4-0.5 0-1.1 0.1-1.6 0.1-4.4 0-8.2-3.2-9-7.6-0.1-0.7-0.3-1.5-0.4-2.3 1.8 0 8.8 0.2 10.4 0.4-0.3-0.1-2.2-0.6-4.3-1.1-3.9-1-6.8-4.4-7-8.5 0-1.7-0.1-3.2 0-4.3l44.4 12.6c0 0 1.5 0.4 1.7 1.8 0.2 1.4-0.5 1.9-0.9 3-0.4 1.2-0.6 5.9 4.6 6.5 0.2 0 0.4 0 0.5 0 2.9 0 4.9-2.1 4.7-4.8-0.3-4.8 0.5-6.2 2.1-7.8 1.6-1.5 3.4-2.1 5-2.1 3.1 0 5.9 2.1 6.3 4.1 0.2 1 2.9 2.6 3.9 3.1 0.1-0.3 0.2-0.7 0.4-1 1.2-2.1 3-3.7 5.1-4.6-1.9-2.6-1.6-6.2 0.9-8.3 2 2.2 2 5.6 0.3 7.9 1.1-0.4 2.3-0.6 3.5-0.6 1.2 0 0.5 0 0.8 0 0.9-0.4 1.8-0.7 2.8-0.7 1.9 0 3.8 0.9 5 2.6"></path><path class="a" d="m214.9 233.8c-0.4 0.2-0.7 0.4-1.2 0.7q0.9 0.3 1.5 0.6c-0.1-0.4-0.3-0.9-0.4-1.3"></path><path class="a" d="m207.8 206.8l-10.8-7.5c1.9-2.3 3.6-4.7 5.2-7.3l10.7 7.5c8.4-9 21.9-12.2 33.8-7.2 0.9-1.3 2.3-2.2 3.9-2.5 1.6-0.3 3.2 0 4.6 1 2.7 1.9 3.4 5.6 1.6 8.4 8.1 8.4 10.8 21.2 6.1 32.5 1.2 0.9 2 2.2 2.3 3.7 0.3 1.6 0 3.2-1 4.6-0.9 1.3-2.3 2.3-3.9 2.6-0.4 0-0.7 0.1-1.1 0.1-1.1 0-2.1-0.3-3.1-0.9-2.9 2.8-6.3 5-10.2 6.5-3.6 1.4-7.3 2.1-10.9 2.1-3.6 0-0.3 0-0.5 0 0.4-1.8 0.2-3.4-0.6-5 0.6-1.3 0.8-2.6 0.7-3.9 0-1-0.3-2-0.7-3 0.2-1.9 1.7-3.6 3.7-4 2.5-0.4 4.9 1.2 5.4 3.7 0.1 0.6 0 1.2 0 1.7 5.1-2.1 9.2-6 11.5-11.1 1.2-2.6 1.8-5.4 1.8-8.2q-0.7 0.4-1.5 0.6c-0.3 0-0.6 0-0.8 0-0.9 0-1.8-0.3-2.6-0.8-1-0.7-1.7-1.8-1.9-3-0.5-2.5 1.2-4.9 3.7-5.4 0.5 0 1.1 0 1.6 0-2.1-5.2-6-9.2-11.1-11.5-2.6-1.1-5.3-1.7-8-1.8 0.2 0.4 0.4 0.8 0.5 1.3 0.2 1.2 0 2.4-0.7 3.5-0.7 1-1.8 1.7-3 1.9q-0.5 0-0.9 0c-0.9 0-1.8-0.3-2.6-0.8-1-0.7-1.7-1.8-1.9-3 0-0.5 0-0.9 0-1.4-5.2 2.1-9.3 6-11.5 11.1q-1.6 3.9-1.8 8.1c0.4-0.2 0.9-0.4 1.4-0.5 2.5-0.5 4.9 1.2 5.4 3.7 0.2 1.2 0 2.5-0.7 3.5-0.7 1-1.7 1.7-3 1.9-0.3 0-0.6 0-0.8 0-0.2 0-0.5 0-0.7-0.1 1.8 4.5 5.1 8.2 9.3 10.6-0.2 1.7 0 3.3 0.5 4.9-0.6 1.6-0.8 3.3-0.5 4.9-0.4-0.2-0.9-0.3-1.4-0.5-0.9 1.3-2.3 2.1-3.8 2.4-0.4 0-0.7 0.1-1.1 0.1-1.2 0-2.4-0.4-3.5-1.1-1.3-0.9-2.3-2.3-2.6-3.9-0.3-1.6 0-3.1 0.9-4.4-2.7-2.8-4.9-6.2-6.3-10-2.9-7.5-2.7-15.8 0.5-23.2 0.2-0.4 0.4-0.8 0.6-1.1"></path><path class="a" d="m137.6 221.5c-1.3 0.8-1.9 1.9-2.1 3.4 1.2-0.4 2.6-0.8 3.7-1.4 1.1-0.5 2.3-1 3.3-1.8 0.3-0.2 0.5-0.4 0.8-0.6-1.4-0.1-2.8-0.4-4.1-0.6-0.5 0.3-1.1 0.6-1.6 0.9"></path><path class="a" d="m131.5 229.3c-1.6 0.4-2.9 1-3.5 2.6 1.8 0 3.9 0.3 5.8 0 1-0.2 2-0.2 3.4-1 1.2-0.8 2.2-1.9 2.5-3.4-1.9 0.7-3.8 1.1-5.5 1.4-0.9 0.1-1.9 0.3-2.7 0.4z"></path><path class="a" d="m134.9 225.7c-1.6 0.5-2.3 1.6-2.9 3.1 1.9 0 3.7-0.5 5.6-1 1.1-0.4 2.2-0.9 3.3-1.6 1.2-0.9 1.9-2.3 1.9-3.8-1.3 0.8-2.7 1.4-4 2-1.4 0.5-2.6 1-3.9 1.4"></path><path class="a" d="m132.1 232.5c-1.9 0-3.5 0-5.2 0-1.6-0.1-2.6 0.7-3.5 1.9 1.3 0.4 2.5 0.5 3.9 0.7 1.2 0.2 2.5 0.3 3.7 0.2 1.5-0.1 3.1-0.7 4.1-2.1 0.3-0.4 0.5-0.8 0.8-1.3-0.7 0.1-1.2 0.2-1.7 0.3-0.7 0.1-1.3 0.3-2 0.3"></path><path class="a" d="m117.5 236.4c-1.7-0.6-3-0.1-4.4 0.8 1.7 1.1 3.4 1.7 5.2 2.6 1 0.3 1.9 0.9 3.5 0.8 1.4 0 2.8-0.6 3.8-1.6-2-0.5-3.8-1-5.5-1.5-0.8-0.3-1.8-0.7-2.6-1"></path><path class="a" d="m122.3 234.8c-1.7-0.4-2.8 0.4-4.1 1.3 1.8 0.9 3.5 1.3 5.4 1.8 1.2 0.3 2.4 0.4 3.6 0.2 1.4-0.2 2.8-0.9 3.5-2.3-1.5 0-3-0.2-4.4-0.4-1.4-0.2-2.7-0.4-4.1-0.7"></path><path class="a" d="m116.5 239.4c-1.7-0.6-3.2-1.5-4.8-2.3-1.4-0.7-2.8-0.3-4.1 0.4 1.1 0.9 2.2 1.4 3.4 2.1 1 0.6 2.1 1.3 3.3 1.8 1.4 0.7 3 0.5 4.5 0 0.4-0.2 0.8-0.4 1.3-0.7-0.7-0.2-1.2-0.4-1.6-0.6-0.6-0.2-1.3-0.5-1.9-0.7"></path><path class="a" d="m101.3 237.4c-1.5-1-2.9-1.3-4.6-0.7 1.4 1.4 2.8 2.7 4.3 4.1 0.8 0.6 1.5 1.2 3 1.7 1.3 0.5 2.7 0.5 4-0.1-1.6-1.2-3.1-2.3-4.5-3.4-0.7-0.5-1.5-1.1-2.2-1.6z"></path><path class="a" d="m108.3 238.7q-0.9-0.6-1.8-1.2c-1.4-0.9-2.9-0.9-4.4-0.1 1.4 1.2 2.9 2.4 4.5 3.5 1 0.7 2 1.3 3.2 1.6 1.4 0.4 2.8 0.2 4.1-0.6-1.3-0.8-2.6-1.5-3.8-2.2-0.6-0.4-1.2-0.7-1.8-1z"></path><path class="a" d="m99.4 239.9c-1.4-1.2-2.6-2.4-4-3.5-0.3-0.2-0.6-0.4-0.9-0.5q-0.6 1.1-1.2 2.1c0.2 0.3 0.5 0.5 0.7 0.8 0.9 0.8 1.7 1.7 2.7 2.5 1.2 1 2.6 1.5 4.2 1.4 0.4 0 0.9-0.2 1.4-0.4-0.5-0.4-1-0.7-1.3-1-0.5-0.4-1-0.9-1.6-1.3"></path><path class="a" d="m92.3 241.2c1.2 0.8 2.7 0.8 4 0.4-1.1-1-2.1-2-3.1-3 0 0-0.1-0.1-0.2-0.2-0.5 0.7-1 1.4-1.6 2.1 0.3 0.2 0.5 0.5 0.8 0.7"></path><path class="a" d="m70.5 247.5q1.1-1.8 2.1-3.6c0.8-1.5 1.1-3.2 0.8-5.1-0.4-1.3-1.1-1.2-1.3 0-0.4 0.7-0.7 1.3-1.1 2q-1.5 2.7-3 5.4c-0.8 1.7-0.6 3.5 0.1 5.3 0.8-1.4 1.6-2.7 2.3-4"></path><path class="a" d="m71.7 238.8c0-1.7-3-1.3-3.4 0-0.8 1.9-0.9 3.9 0 5.8 1.2-1.9 2.3-3.9 3.5-5.8"></path><path class="a" d="m72.7 263.4c1.3-0.8 2.2-2.2 2.2-3.9 0-1.7-0.7-2.7-1.7-3.5 0 0 0 0 0-0.1 0.4-1.6 0.4-3.2-0.2-4.7-0.8 1.3-1.5 2.5-2.3 3.8-0.1 0-0.2 0-0.4 0-0.2 0-0.1 0-0.2 0 0.4-0.7 0.9-1.5 1.3-2.2 0.7-1.2 1.3-2.4 1.7-3.7 0.5-1.6 0.4-3.2-0.2-4.7-0.9 1.5-1.7 2.9-2.5 4.3-0.8 1.4-1.6 2.8-2.3 4.3-0.5 1-0.7 2-0.6 3.1-1 0.8-1.7 2.1-1.7 3.5 0 1.4 0.9 3.1 2.2 3.9l-2.5 6.9q2.2 0.9 4.8 0.9c1.7 0 3.3-0.4 4.8-0.9l-2.5-6.9z"></path><path class="a" d="m162.4 221.5c1.3 0.8 1.9 1.9 2.1 3.4-1.2-0.4-2.6-0.8-3.7-1.4-1.1-0.5-2.3-1-3.3-1.8-0.3-0.2-0.5-0.4-0.8-0.6 1.4-0.1 2.8-0.4 4.1-0.6 0.5 0.3 1.1 0.6 1.6 0.9"></path><path class="a" d="m168.6 229.3c1.6 0.4 2.9 1 3.5 2.6-1.8 0-3.9 0.3-5.8 0-1-0.2-2-0.2-3.4-1-1.2-0.8-2.2-1.9-2.5-3.4 1.9 0.7 3.8 1.1 5.5 1.4 0.9 0.1 1.9 0.3 2.7 0.4z"></path><path class="a" d="m165.1 225.7c1.6 0.5 2.3 1.6 2.9 3.1-1.9 0-3.7-0.5-5.6-1-1.1-0.4-2.2-0.9-3.3-1.6-1.2-0.9-1.9-2.3-1.9-3.8 1.3 0.8 2.7 1.4 4 2 1.4 0.5 2.6 1 3.9 1.4"></path><path class="a" d="m168 232.5c1.9 0 3.5 0 5.2 0 1.6-0.1 2.6 0.7 3.5 1.9-1.3 0.4-2.5 0.5-3.9 0.7-1.2 0.2-2.5 0.3-3.7 0.2-1.5-0.1-3.1-0.7-4.1-2.1-0.3-0.4-0.5-0.8-0.8-1.3 0.7 0.1 1.2 0.2 1.7 0.3 0.7 0.1 1.3 0.3 2 0.3"></path><path class="a" d="m182.6 236.4c1.7-0.6 3-0.1 4.4 0.8-1.7 1.1-3.4 1.7-5.2 2.6-1 0.3-1.9 0.9-3.5 0.8-1.4 0-2.8-0.6-3.8-1.6 2-0.5 3.8-1 5.5-1.5 0.8-0.3 1.8-0.7 2.6-1"></path><path class="a" d="m177.7 234.8c1.7-0.4 2.8 0.4 4.1 1.3-1.8 0.9-3.5 1.3-5.4 1.8-1.2 0.3-2.4 0.4-3.6 0.2-1.4-0.2-2.8-0.9-3.5-2.3 1.5 0 3-0.2 4.4-0.4 1.4-0.2 2.7-0.4 4.1-0.7"></path><path class="a" d="m183.6 239.4c1.7-0.6 3.2-1.5 4.8-2.3 1.4-0.7 2.8-0.3 4.1 0.4-1.1 0.9-2.2 1.4-3.4 2.1-1 0.6-2.1 1.3-3.3 1.8-1.4 0.7-3 0.5-4.5 0-0.4-0.2-0.8-0.4-1.3-0.7 0.7-0.2 1.2-0.4 1.6-0.6 0.6-0.2 1.3-0.5 1.9-0.7"></path><path class="a" d="m198.8 237.4c1.5-1 2.9-1.3 4.6-0.7-1.4 1.4-2.8 2.7-4.3 4.1-0.8 0.6-1.5 1.2-3 1.7-1.3 0.5-2.7 0.5-4-0.1 1.6-1.2 3.1-2.3 4.5-3.4 0.7-0.5 1.5-1.1 2.2-1.6z"></path><path class="a" d="m191.8 238.7q0.9-0.6 1.8-1.2c1.4-0.9 2.9-0.9 4.4-0.1-1.4 1.2-2.9 2.4-4.5 3.5-1 0.7-2 1.3-3.2 1.6-1.4 0.4-2.8 0.2-4.1-0.6 1.3-0.8 2.6-1.5 3.8-2.2 0.6-0.4 1.2-0.7 1.8-1z"></path><path class="a" d="m200.7 239.9c1.4-1.2 2.6-2.4 4-3.5 0.3-0.2 0.6-0.4 0.9-0.5q0.6 1.1 1.2 2.1c-0.2 0.3-0.5 0.5-0.7 0.8-0.9 0.8-1.7 1.7-2.7 2.5-1.2 1-2.6 1.5-4.2 1.4-0.4 0-0.9-0.2-1.4-0.4 0.5-0.4 1-0.7 1.3-1 0.5-0.4 1-0.9 1.6-1.3"></path><path class="a" d="m207.8 241.2c-1.2 0.8-2.7 0.8-4 0.4 1.1-1 2.1-2 3.1-3 0 0 0.1-0.1 0.2-0.2 0.5 0.7 1 1.4 1.6 2.1-0.3 0.2-0.5 0.5-0.8 0.7"></path><path class="a" d="m229.4 247.7q-1-1.8-2.1-3.6c-0.8-1.5-1.1-3.2-0.8-5.1 0.4-1.3 1.1-1.2 1.3 0 0.4 0.7 0.7 1.3 1.1 2q1.5 2.7 3 5.4c0.8 1.7 0.6 3.5-0.1 5.3-0.8-1.4-1.6-2.7-2.3-4"></path><path class="a" d="m228.3 239c0-1.7 3-1.3 3.4 0 0.8 1.9 0.9 3.9 0 5.8-1.2-1.9-2.3-3.9-3.5-5.8"></path><path class="a" d="m227.2 263.6c-1.3-0.8-2.2-2.2-2.2-3.9 0-1.7 0.7-2.7 1.7-3.5 0 0 0 0 0-0.1-0.4-1.6-0.4-3.2 0.2-4.7 0.8 1.3 1.5 2.5 2.3 3.8 0.1 0 0.2 0 0.4 0 0.2 0 0.1 0 0.2 0-0.4-0.7-0.9-1.5-1.3-2.2-0.7-1.2-1.3-2.4-1.7-3.7-0.5-1.6-0.4-3.2 0.2-4.7 0.9 1.5 1.7 2.9 2.5 4.3 0.8 1.4 1.6 2.8 2.3 4.3 0.5 1 0.7 2 0.6 3.1 1 0.8 1.7 2.1 1.7 3.5 0 1.4-0.9 3.1-2.2 3.9l2.5 6.9q-2.3 0.9-4.8 0.9c-1.7 0-3.3-0.4-4.8-0.9l2.5-6.9z"></path></svg>